Coordinates
version=1
nRows=65
nColumns=12
inDegrees=yes

Units are S.I. units (second, meters, Newtons, ...)
Angles are in degrees

endheader
time	SC_y	SC_z	SC_x	AC_y	AC_z	AC_x	GH_y	GH_z	GH_yy	EL_x	PS_y
       0.0              -47.59          4.779          56.55          38.97          4.572         -15.81          177.2         -7.045          113.3          23.21          108.7
   0.03286              -47.59          4.781          56.55          38.97          4.572         -15.81          177.2         -7.033          113.3          23.23          108.6
   0.06573              -47.58          4.784          56.56          38.98          4.572          -15.8          177.2         -7.022          113.3          23.24          108.6
   0.09859              -47.58          4.787          56.56          38.98          4.572          -15.8          177.1         -7.009          113.4          23.26          108.6
    0.1315              -47.57           4.79          56.57          38.99          4.572         -15.79          177.1         -6.995          113.4          23.27          108.6
    0.1643              -47.57          4.794          56.57          38.99          4.572         -15.79          177.1         -6.981          113.4          23.29          108.6
    0.1972              -47.56          4.798          56.58           39.0          4.571         -15.78          177.1         -6.965          113.4          23.31          108.6
      0.23              -47.55          4.801          56.58           39.0          4.571         -15.78          177.1         -6.949          113.4          23.33          108.6
    0.2629              -47.55          4.806          56.59          39.01          4.571         -15.77          177.1         -6.931          113.4          23.35          108.5
    0.2958              -47.54           4.81          56.59          39.02          4.571         -15.76          177.1         -6.912          113.4          23.38          108.5
    0.3286              -47.53          4.815           56.6          39.03          4.571         -15.76          177.1         -6.892          113.5           23.4          108.5
    0.3615              -47.52           4.82          56.61          39.03           4.57         -15.75          177.1          -6.87          113.5          23.43          108.5
    0.3944              -47.51          4.826          56.62          39.04           4.57         -15.74          177.1         -6.847          113.5          23.46          108.5
    0.4272               -47.5          4.832          56.62          39.05           4.57         -15.73          177.1         -6.821          113.5          23.49          108.4
    0.4601              -47.49          4.838          56.63          39.06          4.569         -15.72          177.1         -6.794          113.5          23.53          108.4
    0.4929              -47.48          4.845          56.64          39.08          4.569         -15.71          177.1         -6.764          113.6          23.56          108.4
    0.5258              -47.47          4.853          56.65          39.09          4.569          -15.7          177.1         -6.731          113.6           23.6          108.3
    0.5587              -47.45          4.862          56.67           39.1          4.568         -15.68          177.0         -6.696          113.6          23.65          108.3
    0.5915              -47.44          4.871          56.68          39.12          4.568         -15.67          177.0         -6.657          113.7          23.69          108.3
    0.6244              -47.42          4.881          56.69          39.13          4.567         -15.65          177.0         -6.615          113.7          23.75          108.2
    0.6573               -47.4          4.892          56.71          39.15          4.567         -15.64          177.0         -6.569          113.7          23.81          108.2
    0.6901              -47.38          4.904          56.73          39.17          4.566         -15.62          177.0         -6.518          113.8          23.87          108.1
     0.723              -47.36          4.917          56.75          39.19          4.566          -15.6          177.0         -6.461          113.8          23.94          108.1
    0.7558              -47.34          4.932          56.77          39.22          4.565         -15.57          177.0         -6.399          113.9          24.02          108.0
    0.7887              -47.31          4.949          56.79          39.25          4.564         -15.55          176.9         -6.329          113.9           24.1          107.9
    0.8216              -47.28          4.967          56.82          39.28          4.563         -15.52          176.9         -6.252          114.0           24.2          107.8
    0.8544              -47.24          4.988          56.85          39.31          4.562         -15.49          176.9         -6.165          114.1          24.31          107.7
    0.8873              -47.21          5.011          56.88          39.35          4.561         -15.45          176.8         -6.067          114.2          24.43          107.6
    0.9202              -47.16          5.037          56.92          39.39           4.56         -15.41          176.8         -5.956          114.3          24.57          107.5
     0.953              -47.11          5.067          56.96          39.44          4.559         -15.36          176.8         -5.831          114.4          24.72          107.4
    0.9859              -47.06          5.101          57.01          39.49          4.557         -15.31          176.7         -5.688          114.5           24.9          107.3
     1.019              -46.99           5.14          57.06          39.56          4.555         -15.25          176.7         -5.524          114.6          25.11          107.1
     1.052              -46.92          5.185          57.13          39.63          4.553         -15.18          176.6         -5.334          114.8          25.34          106.9
     1.084              -46.83          5.238           57.2          39.72           4.55          -15.1          176.5         -5.113          115.0          25.62          106.7
     1.117              -46.73          5.299          57.29          39.82          4.547          -15.0          176.5         -4.856          115.2          25.94          106.4
      1.15              -46.61          5.371          57.39          39.94          4.544         -14.89          176.4         -4.552          115.5          26.31          106.1
     1.183              -46.46          5.457          57.51          40.08           4.54         -14.75          176.2          -4.19          115.8          26.76          105.7
     1.216              -46.29           5.56          57.66          40.25          4.535         -14.59          176.1         -3.757          116.2           27.3          105.3
     1.249              -46.09          5.684          57.84          40.45          4.529          -14.4          175.9         -3.233          116.6          27.95          104.7
     1.282              -45.83          5.836          58.05           40.7          4.522         -14.16          175.7         -2.594          117.2          28.75          104.1
     1.315              -45.52          6.024          58.32          41.01          4.513         -13.87          175.5         -1.804          117.8          29.73          103.2
     1.347              -45.13          6.258          58.65          41.39          4.501         -13.51          175.2        -0.8187          118.7          30.96          102.2
      1.38              -44.64          6.553          59.07          41.87          4.487         -13.05          174.8          0.422          119.8           32.5          101.0
     1.413              -44.02          6.927          59.61          42.49          4.469         -12.46          174.3          1.999          121.1          34.46          99.33
     1.446              -43.22          7.407          60.29          43.27          4.446         -11.71          173.6          4.018          122.8          36.97          97.24
     1.479               -42.2          8.022          61.16          44.28          4.417         -10.75          172.8          6.609          125.1           40.2          94.57
     1.512              -40.89          8.809          62.28          45.57          4.379         -9.527          171.7          9.918          127.9          44.31          91.16
     1.545              -39.25          9.797          63.69          47.19          4.332         -7.985          170.4          14.08          131.5          49.49          86.87
     1.577              -37.24           11.0           65.4          49.17          4.274         -6.107          168.8          19.15          135.9          55.79          81.63
      1.61              -34.92           12.4          67.39          51.46          4.207         -3.929          166.9          25.03          140.9           63.1          75.57
     1.643               -32.4          13.91          69.54          53.93          4.135         -1.571          164.9          31.39          146.4          71.02          69.01
     1.676              -29.89          15.42          71.69          56.41          4.062         0.7874          162.9          37.76          151.9          78.94          62.44
     1.709              -27.57          16.82          73.68           58.7          3.995          2.965          161.0          43.63          156.9          86.25          56.38
     1.742              -25.56          18.02          75.39          60.68          3.937          4.844          159.4           48.7          161.3          92.55          51.15
     1.775              -23.92          19.01           76.8           62.3           3.89          6.386          158.0          52.87          164.9          97.73          46.86
     1.807              -22.61           19.8          77.92          63.59          3.852          7.612          157.0          56.17          167.7          101.8          43.44
      1.84              -21.59          20.41          78.79          64.59          3.823          8.572          156.2          58.77          169.9          105.1          40.77
     1.873              -20.79          20.89          79.47          65.38            3.8           9.32          155.5          60.78          171.7          107.6          38.69
     1.906              -20.17          21.27          80.01          65.99          3.782          9.904          155.0          62.36          173.0          109.5          37.06
     1.939              -19.68          21.56          80.43          66.48          3.768          10.36          154.6           63.6          174.1          111.1          35.78
     1.972              -19.29           21.8          80.76          66.86          3.756          10.73          154.3          64.59          174.9          112.3          34.77
     2.005              -18.98          21.98          81.03          67.17          3.747          11.02          154.0          65.38          175.6          113.3          33.95
     2.037              -18.72          22.14          81.24          67.42           3.74          11.26          153.8          66.02          176.2          114.1          33.29
      2.07              -18.52          22.26          81.42          67.62          3.734          11.45          153.7          66.54          176.6          114.7          32.75
     2.103              -18.35          22.36          81.57          67.79          3.729          11.61          153.5          66.97          177.0          115.3           32.3
